<?xml version="1.0" encoding="utf-8"?>
<!-- Generator: Adobe Illustrator 16.0.4, SVG Export Plug-In . SVG Version: 6.00 Build 0)  -->
<!DOCTYPE svg PUBLIC "-//W3C//DTD SVG 1.1//EN" "http://www.w3.org/Graphics/SVG/1.1/DTD/svg11.dtd">
<svg version="1.1" id="Layer_1" xmlns="http://www.w3.org/2000/svg" xmlns:xlink="http://www.w3.org/1999/xlink" x="0px" y="0px"
	 width="165px" height="21.04px" viewBox="0 0 165 21.04" enable-background="new 0 0 165 21.04" xml:space="preserve">
<g>
	<path fill="#FFFFFF" d="M6.857,6.292c0-1.149-0.35-1.499-0.824-1.55l-0.8-0.149v-2.3h7.723c4.35,0,6.773,3.699,6.773,6.823
		c0,1.625-0.85,2.774-1.524,3.324c0.975,1.15,1.625,2.5,1.625,4.35c0,2.499-1.75,4.249-4.124,4.249H6.833l-1.6-2.1v-2.3l0.975-0.149
		c0.475-0.101,0.649-0.801,0.649-1.675V6.292z M7.282,14.941c0,1.149-0.199,1.874-0.8,1.999l-0.8,0.125v1.425h7.698
		c2.5,0,4.149-1.6,4.149-4.724c0-1.399-0.475-2.55-1.524-3.425v-0.024c0.524-0.4,1.425-1.524,1.425-3.399
		c0-2.574-1.625-4.174-4.699-4.174H5.683v1.425l0.8,0.125c0.5,0.1,0.8,0.824,0.8,1.999V14.941z M12.706,3.168
		c2.449,0,4.299,1.1,4.299,3.749c0,1.774-1.049,2.874-1.649,3.424c-0.274-0.199-0.649-0.199-1.074,0
		c0.625,0.2,1.249,0.55,1.675,0.976c0.399,0.874,0.399,2.799-0.351,4.349c0.4-2.074-0.325-3.475-1.125-4.024
		c0.075-0.425-0.05-0.874-0.274-1.3c-0.4-0.199-0.85-0.199-1.274,0c-0.45-0.199-0.925-0.199-1.375,0
		c-0.475-0.199-0.975-0.199-1.449,0c-0.476-0.199-0.925-0.199-1.4,0c0.125,0.325,0.425,0.851,0.75,1.226
		c-0.325,0.824-0.625,1.974-0.8,4.099c-0.175-2.125-0.45-3.274-0.8-4.099c0.35-0.375,0.625-0.9,0.75-1.226
		c-0.3-0.199-0.625-0.199-0.875,0V6.292c0-1.899-0.524-2.374-0.975-2.475l-0.649-0.1v-0.55H12.706z M8.707,10.317
		c0.125-0.875,0.425-1.375,0.8-1.75c-0.375-0.6-0.675-1.499-0.85-3.374c-0.175,1.875-0.45,2.774-0.774,3.374
		c0.324,0.375,0.6,0.875,0.725,1.75H8.707z M9.657,9.767h2.524c1.975,0,2.699-1.05,2.699-2.625c0-1.624-0.875-3.049-2.225-3.049
		h-1.699c-0.85,0-1.3,0.925-1.3,2.324V9.767z M10.107,6.417c0-1.225,0.324-1.899,0.85-1.899h1.774c0.824,0,1.699,1.05,1.699,2.624
		c0,1.351-0.699,2.2-2.074,2.2h-2.249V6.417z M10.957,16.74c-0.525,0-0.85-0.649-0.85-1.799v-3.874h2.174
		c1.325,0,2.149,1.1,2.149,2.674c0,1.399-0.725,2.999-2.074,2.999H10.957z M12.881,7.068c-0.3,0-0.499,0.449-0.499,0.899v0.875
		h0.425c0.425,0,1.024-0.35,1.024-0.925c0-0.45-0.05-0.85-0.3-0.85H12.881z M12.382,15.241c0,0.55,0.149,0.949,0.375,0.949
		c0.425,0,1.1-0.874,1.1-1.749c0-0.45-0.226-0.85-0.625-0.85l-0.85-0.025V15.241z M14.281,10.317
		c0.899-0.575,1.675-1.149,2.024-1.75c0.024-1.05-0.15-2.374-0.75-3.374c0.2,1.675,0.05,2.675-0.475,3.199
		c-0.075,0.8-0.45,1.399-0.875,1.925H14.281z"/>
	<path fill="#FFFFFF" d="M33.854,14.016c0,4.799-2.599,7.173-6.073,7.173c-3.574,0-6.998-2.649-6.998-8.123V8.267
		c0-3.749,2.699-6.123,5.623-6.123c4.774,0,7.448,4.249,7.448,7.272V14.016z M31.58,8.217c-0.024-3.124-2.049-5.648-5.174-5.648
		c-3.124,0-5.173,2.699-5.173,5.648l-0.025,4.773c-0.025,3.399,2.074,5.649,5.198,5.649c3.149,0,5.199-2.675,5.174-5.824V8.217z
		 M24.157,10.341c-0.2-0.199-0.7-0.199-1.199,0c0.124,0.325,0.425,0.825,0.774,1.226c-0.35,0.824-0.774,2.399-0.45,4.099
		c-0.649-1.774-1-3.249-1.175-4.099c0.351-0.4,0.601-0.9,0.775-1.226c-0.476-0.199-1-0.199-1.225,0V8.217
		c0-2.55,1.699-5.224,4.748-5.224c3.024,0,4.725,2.674,4.725,5.224v2.124c-0.226-0.199-0.726-0.199-1.225,0
		c0.175,0.325,0.425,0.825,0.774,1.226c-0.15,0.924-0.35,2.299-1.149,4.099c0.175-1.8-0.101-3.274-0.476-4.099
		c0.375-0.4,0.65-0.9,0.775-1.226c-0.5-0.199-1-0.199-1.2,0V6.967c0-2.424-0.949-3.224-2.225-3.224c-1.299,0-2.249,0.8-2.249,3.224
		V10.341z M22.958,10.292c0.124-0.875,0.425-1.35,0.774-1.749c-0.45-0.975-0.45-2-0.25-3.35c-0.7,1.2-1.075,2.175-1.375,3.35
		c0.351,0.399,0.625,0.874,0.775,1.749H22.958z M24.632,6.967c0-1.399,0.275-2.774,1.774-2.774c1.475,0,1.775,1.375,1.775,2.774
		v6.648c0,1.7-0.301,3.425-1.775,3.425c-1.499,0-1.774-1.6-1.774-3.425V6.967z M27.757,7.842c0-1-0.051-1.699-0.4-1.699
		c-0.3,0-0.475,0.5-0.475,1.824v5.898c0,0.975,0.074,2.1,0.324,2.1c0.375,0,0.551-1.05,0.551-2.399V7.842z M29.906,10.292
		c0.149-0.875,0.425-1.35,0.774-1.749c-0.325-1.15-0.649-2.2-1.375-3.35c0.2,1.1,0.2,2.375-0.25,3.35
		c0.375,0.399,0.65,0.874,0.775,1.749H29.906z"/>
	<path fill="#FFFFFF" d="M47.929,14.016c0,4.799-2.599,7.173-6.073,7.173c-3.574,0-6.998-2.649-6.998-8.123V8.267
		c0-3.749,2.699-6.123,5.623-6.123c4.774,0,7.448,4.249,7.448,7.272V14.016z M45.654,8.217c-0.024-3.124-2.049-5.648-5.174-5.648
		c-3.124,0-5.173,2.699-5.173,5.648l-0.025,4.773c-0.025,3.399,2.074,5.649,5.198,5.649c3.149,0,5.199-2.675,5.174-5.824V8.217z
		 M38.231,10.341c-0.2-0.199-0.7-0.199-1.199,0c0.124,0.325,0.425,0.825,0.774,1.226c-0.35,0.824-0.774,2.399-0.45,4.099
		c-0.649-1.774-1-3.249-1.175-4.099c0.351-0.4,0.601-0.9,0.775-1.226c-0.476-0.199-1-0.199-1.225,0V8.217
		c0-2.55,1.699-5.224,4.748-5.224c3.024,0,4.725,2.674,4.725,5.224v2.124c-0.226-0.199-0.726-0.199-1.225,0
		c0.175,0.325,0.425,0.825,0.774,1.226c-0.15,0.924-0.35,2.299-1.149,4.099c0.175-1.8-0.101-3.274-0.476-4.099
		c0.375-0.4,0.65-0.9,0.775-1.226c-0.5-0.199-1-0.199-1.2,0V6.967c0-2.424-0.949-3.224-2.225-3.224c-1.299,0-2.249,0.8-2.249,3.224
		V10.341z M37.032,10.292c0.124-0.875,0.425-1.35,0.774-1.749c-0.45-0.975-0.45-2-0.25-3.35c-0.7,1.2-1.075,2.175-1.375,3.35
		c0.351,0.399,0.625,0.874,0.775,1.749H37.032z M38.706,6.967c0-1.399,0.275-2.774,1.774-2.774c1.475,0,1.775,1.375,1.775,2.774
		v6.648c0,1.7-0.301,3.425-1.775,3.425c-1.499,0-1.774-1.6-1.774-3.425V6.967z M41.831,7.842c0-1-0.051-1.699-0.4-1.699
		c-0.3,0-0.475,0.5-0.475,1.824v5.898c0,0.975,0.074,2.1,0.324,2.1c0.375,0,0.551-1.05,0.551-2.399V7.842z M43.98,10.292
		c0.149-0.875,0.425-1.35,0.774-1.749c-0.325-1.15-0.649-2.2-1.375-3.35c0.2,1.1,0.2,2.375-0.25,3.35
		c0.375,0.399,0.65,0.874,0.775,1.749H43.98z"/>
	<path fill="#FFFFFF" d="M50.007,6.292c0-1.149-0.35-1.499-0.824-1.55l-0.8-0.149v-2.3h13.821l1.85,2.449v1.975l-0.975,0.125
		c-0.725,0.101-1.425,0.375-2.225,1.4l-2.024,2.574l4.049,6.173l1.375,1.475v2.575h-6.749l-0.524-0.575v0.575h-6.998l-1.6-2.1v-2.3
		l0.975-0.149c0.475-0.101,0.649-0.801,0.649-1.675V6.292z M50.432,14.941c0,1.149-0.199,1.874-0.8,1.999l-0.8,0.125v1.425h6.049
		v-1.425l-0.8-0.125c-0.625-0.125-0.824-0.85-0.824-1.999v-1.25l1.074-1.399l1.925,3.174c0.225,0.375,0.375,0.75,0.375,1
		c0,0.274-0.15,0.475-0.351,0.524l-0.55,0.075v1.425h6.398v-1.425l-0.899-0.125c-0.649-0.1-1.3-0.949-1.925-1.999l-3.049-5.074
		l3.124-3.999c0.7-0.899,1.2-1.524,1.55-1.574l0.824-0.125V2.744H55.73v1.425l0.575,0.075c0.325,0.05,0.649,0.199,0.649,0.35
		c0,0.125-0.1,0.3-0.199,0.399l-3.149,4.074c-0.075,0.125-0.225,0.25-0.35,0.25V6.292c0-1.175,0.3-1.899,0.8-1.999l0.8-0.125V2.744
		h-6.024v1.425l0.8,0.125c0.5,0.1,0.8,0.824,0.8,1.999V14.941z M50.882,6.292c0-1.899-0.524-2.374-0.975-2.475l-0.649-0.1v-0.55
		h5.173v0.55l-0.649,0.1c-0.45,0.101-0.975,0.575-0.975,2.475v3.55c0.575,0,0.85-0.15,1.149-0.551l3.199-4.099
		c0.101-0.149,0.25-0.45,0.25-0.725c0-0.375-0.25-0.625-0.75-0.675l-0.475-0.075v-0.55h5.148v0.55l-0.649,0.1
		c-0.425,0.075-0.975,0.851-1.774,1.85l-3.649,4.674c-0.25-0.199-0.6-0.199-1.024,0c0.8,0.525,1.399,0.875,2.074,1.101
		c0.3,1.174,0.825,2.374,1.699,4.224c-1.05-1.425-1.949-2.725-2.874-3.524c-0.175-0.625-0.5-1.175-1-1.8
		c-0.199-0.199-0.624-0.199-0.999,0c-0.426-0.199-0.825-0.199-1.25,0c0.149,0.325,0.425,0.851,0.8,1.226
		c-0.375,0.824-0.65,1.974-0.825,4.099c-0.175-2.125-0.449-3.274-0.824-4.099c0.375-0.375,0.649-0.9,0.774-1.226
		c-0.35-0.199-0.675-0.199-0.925,0V6.292z M51.882,10.317c0.149-0.875,0.425-1.375,0.774-1.75c-0.35-0.6-0.625-1.499-0.8-3.374
		c-0.175,1.875-0.449,2.774-0.824,3.374c0.375,0.375,0.649,0.875,0.774,1.75H51.882z M54.231,10.317
		c0.725-0.6,1.374-1.175,2.149-1.75c0.075-0.649,1.024-2.249,1.699-3.374c-1.149,1.475-2.249,2.8-3.199,3.374
		c-0.225,0.625-0.45,1.075-0.75,1.75H54.231z"/>
	<path fill="#FFFFFF" d="M81.954,4.743v6.824h-2.399l-1.575-2.1v7.548l1.6,2.124v1.9h-7.147l-1.6-2.1v-2.3l0.949-0.149
		c0.5-0.101,0.65-0.801,0.65-1.675v-3.249h-1.649l-2.325-2.1V2.293h11.647L81.954,4.743z M68.907,9.017h1.475V7.618
		c0-1.475,0.375-3.1,1.449-3.1c0.95,0,1.05,1.475,1.05,2.425v7.998c0,1.149-0.199,1.874-0.824,1.999l-0.8,0.125v1.425h6.048v-1.425
		L76.53,16.94c-0.649-0.125-0.85-0.85-0.85-1.999V6.943c0-0.95,0.1-2.425,1.05-2.425c1.074,0,1.449,1.625,1.449,3.1v1.399h1.475
		V2.744H68.907V9.017z M79.229,3.168v5.424h-0.625V7.717c0-1.574-0.324-3.624-1.874-3.624c-1.075,0-1.475,0.899-1.475,2.399v3.849
		c-0.226-0.199-0.575-0.199-0.925,0c0.149,0.325,0.425,0.851,0.774,1.226c-0.35,0.824-0.625,1.974-0.824,4.099
		c-0.176-2.125-0.45-3.274-0.8-4.099c0.35-0.375,0.624-0.9,0.774-1.226c-0.325-0.199-0.675-0.199-0.95,0V6.493
		c0-1.5-0.399-2.399-1.475-2.399c-1.549,0-1.874,2.05-1.874,3.624v0.875h-0.625V3.168H79.229z M74.331,10.317
		c0.149-0.875,0.425-1.375,0.75-1.75c-0.325-0.6-0.601-1.499-0.8-3.374c-0.176,1.875-0.45,2.774-0.8,3.374
		c0.35,0.375,0.624,0.875,0.774,1.75H74.331z"/>
	<path fill="#FFFFFF" d="M83.531,6.292c0-1.149-0.35-1.499-0.824-1.55l-0.8-0.149v-2.3h6.923l1.85,2.449v1.975l-0.774,0.125
		c-0.45,0.051-0.85,0.575-0.85,1.925v8.248l1.624,2.124v1.9h-7.173l-1.6-2.1v-2.3l0.975-0.149c0.475-0.101,0.649-0.801,0.649-1.675
		V6.292z M83.956,14.941c0,1.149-0.199,1.874-0.8,1.999l-0.8,0.125v1.425h6.049v-1.425l-0.8-0.125
		c-0.625-0.125-0.824-0.85-0.824-1.999V6.292c0-1.175,0.3-1.899,0.8-1.999l0.8-0.125V2.744h-6.024v1.425l0.8,0.125
		c0.5,0.1,0.8,0.824,0.8,1.999V14.941z M86.331,10.341c-0.25-0.199-0.6-0.199-0.925,0c0.149,0.325,0.425,0.851,0.8,1.226
		c-0.375,0.824-0.65,1.974-0.825,4.099c-0.175-2.125-0.449-3.274-0.824-4.099c0.375-0.375,0.649-0.9,0.774-1.226
		c-0.35-0.199-0.675-0.199-0.925,0V6.292c0-1.899-0.524-2.374-0.975-2.475l-0.649-0.1v-0.55h5.173v0.55l-0.649,0.1
		c-0.45,0.101-0.975,0.575-0.975,2.475V10.341z M85.406,10.317c0.149-0.875,0.425-1.375,0.8-1.75c-0.375-0.6-0.65-1.499-0.825-3.374
		c-0.175,1.875-0.449,2.774-0.824,3.374c0.375,0.375,0.649,0.875,0.774,1.75H85.406z"/>
	<path fill="#FFFFFF" d="M91.106,8.217c0-3.374,2.524-6.073,5.474-6.073c0.85,0,1.499,0.175,2.1,0.425
		c0.475,0.225,0.925,0.425,1.074,0.425c0.15,0,0.175-0.3,0.175-0.75h2.3l2.1,2.374v8.023h-3.399l-1.874-2.1
		c-0.075-2.824-0.625-4.398-1.125-4.398c-0.55,0-0.725,0.824-0.725,1.824v6.974c0,0.725,0.25,1.3,0.699,1.3
		c0.65,0,1.05-1.175,1.15-3.375h3.324l2.099,2.35c-0.55,4.974-3.474,5.974-6.373,5.974c-3.574,0-6.998-3.524-6.998-8.798V8.217z
		 M102.054,10.092V2.668h-1.699c0,0.65-0.15,0.8-0.4,0.8c-0.3,0-0.8-0.2-1.199-0.425c-0.65-0.325-1.3-0.475-2.025-0.475
		c-3.148,0-5.173,3.049-5.173,5.674v4.148c0,3.05,1.499,6.249,5.448,6.249c3.624,0,5.049-2.675,5.049-5.349h-2.574
		c0,2.773-0.9,3.749-2.399,3.749c-1.475,0-2.149-1.45-2.149-3.425V6.967c0-1.399,0.3-2.774,1.799-2.774
		c1.95,0,2.75,3.425,2.75,5.899H102.054z M94.48,9.917c-0.3-0.175-0.774-0.175-1.2,0c0.125,0.325,0.426,0.825,0.775,1.225
		c-0.35,0.851-0.65,1.975-0.475,4.074c-0.75-1.675-0.976-2.824-1.15-4.074c0.351-0.399,0.625-0.899,0.775-1.225
		c-0.476-0.175-0.925-0.175-1.225,0V8.542c0-2.774,1.975-5.549,4.748-5.549c0.75,0,1.375,0.225,1.85,0.425
		c0.601,0.3,1.1,0.5,1.575,0.5c0.35,0,0.649-0.25,0.649-0.8h0.8v6.548h-1.675c-0.175-3.124-1.149-5.923-3.199-5.923
		c-1.899,0-2.249,1.624-2.249,3.224V9.917z M93.28,9.767c0.125-0.351,0.351-0.825,0.775-1.225c-0.4-0.975-0.425-2-0.25-3.374
		c-0.7,1.174-1.149,2.424-1.375,3.374c0.375,0.399,0.675,0.874,0.775,1.225H93.28z"/>
	<path fill="#FFFFFF" d="M106.405,6.292c0-1.149-0.35-1.499-0.824-1.55l-0.8-0.149v-2.3h13.821l1.85,2.449v1.975l-0.975,0.125
		c-0.725,0.101-1.425,0.375-2.225,1.4l-2.024,2.574l4.049,6.173l1.375,1.475v2.575h-6.749l-0.524-0.575v0.575h-6.998l-1.6-2.1v-2.3
		l0.975-0.149c0.475-0.101,0.649-0.801,0.649-1.675V6.292z M106.83,14.941c0,1.149-0.199,1.874-0.8,1.999l-0.8,0.125v1.425h6.049
		v-1.425l-0.8-0.125c-0.625-0.125-0.824-0.85-0.824-1.999v-1.25l1.074-1.399l1.925,3.174c0.225,0.375,0.375,0.75,0.375,1
		c0,0.274-0.15,0.475-0.351,0.524l-0.55,0.075v1.425h6.398v-1.425l-0.899-0.125c-0.649-0.1-1.3-0.949-1.925-1.999l-3.049-5.074
		l3.124-3.999c0.7-0.899,1.2-1.524,1.55-1.574l0.824-0.125V2.744h-6.023v1.425l0.575,0.075c0.325,0.05,0.649,0.199,0.649,0.35
		c0,0.125-0.1,0.3-0.199,0.399l-3.149,4.074c-0.075,0.125-0.225,0.25-0.35,0.25V6.292c0-1.175,0.3-1.899,0.8-1.999l0.8-0.125V2.744
		h-6.024v1.425l0.8,0.125c0.5,0.1,0.8,0.824,0.8,1.999V14.941z M107.28,6.292c0-1.899-0.524-2.374-0.975-2.475l-0.649-0.1v-0.55
		h5.173v0.55l-0.649,0.1c-0.45,0.101-0.975,0.575-0.975,2.475v3.55c0.575,0,0.85-0.15,1.149-0.551l3.199-4.099
		c0.101-0.149,0.25-0.45,0.25-0.725c0-0.375-0.25-0.625-0.75-0.675l-0.475-0.075v-0.55h5.148v0.55l-0.649,0.1
		c-0.425,0.075-0.975,0.851-1.774,1.85l-3.649,4.674c-0.25-0.199-0.6-0.199-1.024,0c0.8,0.525,1.399,0.875,2.074,1.101
		c0.3,1.174,0.825,2.374,1.699,4.224c-1.05-1.425-1.949-2.725-2.874-3.524c-0.175-0.625-0.5-1.175-1-1.8
		c-0.199-0.199-0.624-0.199-0.999,0c-0.426-0.199-0.825-0.199-1.25,0c0.149,0.325,0.425,0.851,0.8,1.226
		c-0.375,0.824-0.65,1.974-0.825,4.099c-0.175-2.125-0.449-3.274-0.824-4.099c0.375-0.375,0.649-0.9,0.774-1.226
		c-0.35-0.199-0.675-0.199-0.925,0V6.292z M108.28,10.317c0.149-0.875,0.425-1.375,0.774-1.75c-0.35-0.6-0.625-1.499-0.8-3.374
		c-0.175,1.875-0.449,2.774-0.824,3.374c0.375,0.375,0.649,0.875,0.774,1.75H108.28z M110.63,10.317
		c0.725-0.6,1.374-1.175,2.149-1.75c0.075-0.649,1.024-2.249,1.699-3.374c-1.149,1.475-2.249,2.8-3.199,3.374
		c-0.225,0.625-0.45,1.075-0.75,1.75H110.63z"/>
	<path fill="#FFFFFF" d="M121.506,4.743l-0.8-0.149v-2.3h10.622l1.949,2.55v5.898h-2.624l-1.675-2.199V7.667
		c0-0.525-0.125-0.825-0.524-0.825c-0.425,0-0.625,0.4-0.6,0.875l0.024,0.625l2.199,2.924v1.125h1.25l1.949,2.6v6.049h-10.972
		l-1.6-2.1v-2.3l0.975-0.149c0.475-0.101,0.649-0.801,0.649-1.675V6.292C122.33,5.143,121.98,4.793,121.506,4.743z M128.054,11.067
		V9.292h-2.474V6.042c0-1.149,0.374-1.749,1.649-1.749c1.175,0,2.174,0.975,2.174,2.849v1.05h1.575V2.744h-9.823v1.425l0.8,0.125
		c0.5,0.1,0.8,0.824,0.8,1.999v8.648c0,1.149-0.199,1.899-0.8,1.999l-0.8,0.125v1.425h9.823v-5.648h-1.575v1.225
		c0,1.55-0.425,2.824-2.174,2.824c-1.275,0-1.649-0.725-1.649-1.725v-4.099H128.054z M130.554,3.168v4.599h-0.7V7.142
		c0-2.599-1.5-3.273-2.624-3.273c-1.675,0-2.1,1.1-2.1,2.174v3.699h2.499v0.6c-0.574-0.199-1.225-0.175-1.725,0.025
		c-0.524-0.2-1.124-0.225-1.699-0.025c0.149,0.325,0.425,0.851,0.8,1.226c-0.375,0.824-0.65,1.974-0.825,4.099
		c-0.175-2.125-0.449-3.274-0.824-4.099c0.375-0.375,0.649-0.9,0.774-1.226c-0.35-0.199-0.699-0.199-0.925,0V6.292
		c0-1.899-0.524-2.374-0.975-2.475l-0.649-0.1v-0.55H130.554z M124.205,10.317c0.149-0.875,0.425-1.375,0.774-1.75
		c-0.35-0.6-0.625-1.499-0.8-3.374c-0.175,1.875-0.449,2.774-0.824,3.374c0.375,0.375,0.649,0.875,0.774,1.75H124.205z
		 M127.854,15.316c0,0.399,0.1,0.774,0.35,0.774c0.3,0,0.774-0.6,0.774-2.074v-0.4h-1.124V15.316z"/>
	<path fill="#FFFFFF" d="M147.478,4.743v6.824h-2.399l-1.575-2.1v7.548l1.6,2.124v1.9h-7.147l-1.6-2.1v-2.3l0.949-0.149
		c0.5-0.101,0.65-0.801,0.65-1.675v-3.249h-1.649l-2.325-2.1V2.293h11.647L147.478,4.743z M134.431,9.017h1.475V7.618
		c0-1.475,0.375-3.1,1.449-3.1c0.95,0,1.05,1.475,1.05,2.425v7.998c0,1.149-0.199,1.874-0.824,1.999l-0.8,0.125v1.425h6.048v-1.425
		l-0.774-0.125c-0.649-0.125-0.85-0.85-0.85-1.999V6.943c0-0.95,0.1-2.425,1.05-2.425c1.074,0,1.449,1.625,1.449,3.1v1.399h1.475
		V2.744h-10.747V9.017z M144.753,3.168v5.424h-0.625V7.717c0-1.574-0.324-3.624-1.874-3.624c-1.075,0-1.475,0.899-1.475,2.399v3.849
		c-0.226-0.199-0.575-0.199-0.925,0c0.149,0.325,0.425,0.851,0.774,1.226c-0.35,0.824-0.625,1.974-0.824,4.099
		c-0.176-2.125-0.45-3.274-0.8-4.099c0.35-0.375,0.624-0.9,0.774-1.226c-0.325-0.199-0.675-0.199-0.95,0V6.493
		c0-1.5-0.399-2.399-1.475-2.399c-1.549,0-1.874,2.05-1.874,3.624v0.875h-0.625V3.168H144.753z M139.854,10.317
		c0.149-0.875,0.425-1.375,0.75-1.75c-0.325-0.6-0.601-1.499-0.8-3.374c-0.176,1.875-0.45,2.774-0.8,3.374
		c0.35,0.375,0.624,0.875,0.774,1.75H139.854z"/>
	<path fill="#FFFFFF" d="M147.806,6.967c0-3.049,2.324-4.823,5.099-4.823c0.725,0,1.425,0.1,1.925,0.225
		c0.499,0.125,0.85,0.25,1.1,0.25c0.274,0,0.449-0.2,0.574-0.375h1.85l1.85,2.499v5.249h-1.649l-2.249-2.1
		c-0.2-1.1-0.625-2.199-1.65-2.199c-0.899,0-1.324,0.524-1.324,1.274c0,0.65,0.225,1.075,1.899,1.649
		c3.524,1.226,5.573,3.55,5.573,7.323c0,3.149-2.399,5.249-4.898,5.249c-1.05,0-2.05-0.25-2.549-0.6c-0.4-0.275-0.825-0.5-1.15-0.5
		c-0.35,0-0.574,0.675-0.725,0.95h-2.175l-1.674-2.175v-6.174h2.199c0.425,0.9,1.1,1.975,1.499,2.449c0.476,0.601,1.25,1.2,2.2,1.2
		c0.524,0,1.249-0.3,1.249-0.95c0-0.925-2.074-1.374-3.074-1.924C149.955,12.491,147.806,10.367,147.806,6.967z M151.029,6.167
		c0-0.975,0.65-2.049,2.05-2.049c1.074,0,2.3,0.824,2.749,1.399c0.375,0.475,0.675,1.175,0.85,1.925h1.226V2.744h-1.226
		c-0.175,0.175-0.374,0.375-0.675,0.375c-0.374,0-0.749-0.125-1.149-0.25c-0.475-0.15-1.3-0.3-2.074-0.3
		c-2.475,0-4.499,1.649-4.499,4.299c0,2.499,0.899,3.899,3.149,4.849l1.949,0.8c0.825,0.35,2.149,0.95,2.149,2.375
		c0,0.999-0.774,1.899-1.824,1.899c-1.7,0-2.949-0.825-3.574-1.825c-0.4-0.625-0.65-1.175-0.775-1.85h-1.249v5.374h1.249
		c0.226-0.45,0.5-0.95,0.9-0.95c0.399,0,0.85,0.226,1.425,0.5c0.55,0.275,1.399,0.601,2.35,0.601c2.549,0,4.498-1.9,4.498-4.725
		c0-2.999-1.449-4.349-4.724-5.323C151.904,8.042,151.005,7.592,151.029,6.167z M156.503,10.341c-0.8-0.199-1.274-0.199-1.725,0
		c-0.524-0.199-1.074-0.199-1.699,0c1.425,0.301,2.55,0.5,3.274,0.775c0.824,1.25,1.024,2.6,0.35,4.549
		c-0.05-1.899-0.899-3.299-1.8-3.549c-0.175-0.55-0.524-1.175-1.924-1.775c-0.5-0.199-1.075-0.199-1.575,0
		c-0.524-0.199-0.899-0.199-1.225,0c-1.125-0.925-1.449-1.949-1.449-3.474c0-2.375,1.874-3.874,3.999-3.874
		c0.649,0,1.199,0.05,1.674,0.175c0.5,0.15,1.15,0.375,1.65,0.375c0.375,0,0.624-0.2,0.774-0.375h0.649v3.849h-0.475
		c-0.325-1.699-1.975-3.323-3.924-3.323c-1.8,0-2.475,1.299-2.475,2.398c0,1.325,0.5,2.1,2.074,2.625
		C154.278,9.267,155.703,9.667,156.503,10.341z M153.079,10.292c-1.6-0.8-2.3-1.499-2.274-2.499c-0.649-0.45-0.95-1.2-0.925-2.6
		c-0.35,0.95-0.625,2.074-0.6,3.024c0.675,0.925,1.725,1.55,3.699,2.074H153.079z"/>
</g>
</svg>
